<svg width="161" height="48" viewBox="0 0 161 48" fill="none" xmlns="http://www.w3.org/2000/svg">
<g clip-path="url(#clip0_476_1134)">
<path d="M88.3004 18.0088C87.7056 16.912 86.8517 16.0744 85.7412 15.4948C84.6295 14.9152 83.3224 14.626 81.8197 14.626C79.2209 14.626 77.139 15.4804 75.574 17.1868C74.0078 18.8944 73.2259 21.1744 73.2259 24.0244C73.2259 27.064 74.0474 29.4364 75.6916 31.144C77.3357 32.8516 79.5963 33.7048 82.4781 33.7048C84.4509 33.7048 86.1178 33.2044 87.4802 32.2C88.8425 31.198 89.8355 29.7568 90.4627 27.8764H80.2715V21.9556H97.7421V29.4268C97.1473 31.4332 96.1375 33.2968 94.7128 35.0188C93.2881 36.742 91.4796 38.1364 89.2886 39.2008C87.0964 40.2664 84.6235 40.7992 81.8689 40.7992C78.6129 40.7992 75.7084 40.0864 73.1576 38.6608C70.6056 37.2352 68.6172 35.254 67.1937 32.716C65.769 30.178 65.0566 27.2812 65.0566 24.0232C65.0566 20.7652 65.769 17.86 67.1937 15.3052C68.6184 12.7528 70.5984 10.7632 73.1348 9.33762C75.6712 7.91202 78.5661 7.19922 81.8233 7.19922C85.7676 7.19922 89.0943 8.15562 91.8022 10.066C94.5101 11.9764 96.303 14.6236 97.1797 18.0076H88.304L88.3004 18.0088Z" fill="#0767B3"/>
<path d="M151.24 40.4736L140.217 25.986V40.4736H132.23V7.66797H140.217V22.0608L151.146 7.66797H160.534L147.83 23.7432L161 40.4736H151.24Z" fill="#0767B3"/>
<path d="M108.627 30.9204C106.69 29.8392 105.152 28.3296 104.014 26.3916C102.874 24.4536 102.305 22.2744 102.305 19.854C102.305 17.4336 102.873 15.2604 104.014 13.3332C105.152 11.4072 106.69 9.90357 108.627 8.82237C110.564 7.74237 112.696 7.20117 115.02 7.20117C117.344 7.20117 119.475 7.74237 121.412 8.82237C123.349 9.90357 124.876 11.4072 125.991 13.3332C127.106 15.2604 127.664 17.4336 127.664 19.854C127.664 22.2744 127.1 24.4536 125.973 26.3916C124.846 28.3296 123.319 29.8392 121.394 30.9204C119.469 32.0016 117.344 32.5416 115.019 32.5416C112.694 32.5416 110.563 32.0016 108.626 30.9204H108.627ZM119.757 25.0704C120.942 23.7552 121.536 22.0164 121.536 19.854C121.536 17.6916 120.942 15.924 119.757 14.6196C118.571 13.3152 116.992 12.6636 115.02 12.6636C113.049 12.6636 111.433 13.3104 110.247 14.6016C109.061 15.894 108.469 17.6448 108.469 19.8528C108.469 22.0608 109.061 23.7828 110.247 25.0872C111.433 26.3916 113.024 27.0432 115.02 27.0432C117.017 27.0432 118.571 26.3856 119.757 25.0692V25.0704Z" fill="#0767B3"/>
<path d="M127.665 36.1133H102.305V40.8005H127.665V36.1133Z" fill="#0767B3"/>
<path d="M45.3706 12.0954C45.3706 12.0954 46.1669 9.81059 45.8071 9.26819C45.6224 8.98979 43.8284 9.14579 43.8284 9.14579C43.8284 9.14579 44.4268 6.34139 43.8763 6.24899C42.5811 6.02939 40.5604 5.66219 40.5604 5.66219L40.3278 9.74099C40.3278 9.74099 40.3661 11.1978 41.6505 11.097C41.8016 11.085 41.5546 11.8518 41.5546 11.8518C41.5546 11.8518 37.4124 16.6602 35.3509 18.1542C34.8256 18.639 31.6344 15.789 30.7698 14.9994L30.8525 11.6598C30.8525 11.6598 32.1897 10.557 32.3504 8.98619C32.4319 8.19179 32.9332 6.19619 32.3504 5.57219C31.8359 5.02019 30.1186 5.41259 30.1186 5.41259L28.9277 34.3086C28.9277 34.3086 29.9351 34.3578 30.2613 34.1022C31.391 33.219 31.6368 29.745 31.0768 28.425C30.9629 28.1562 30.4508 27.8418 30.4508 27.8418L30.7206 16.9458C32.7269 18.8946 33.8374 19.755 35.1638 20.0586C36.3511 19.9494 38.0948 18.363 38.0948 18.363L38.5937 28.9494L39.2017 41.8542L40.5592 42.0714L40.8602 38.9514C40.8602 38.9514 42.3041 39.1398 42.5692 39.5322C42.8606 39.9654 42.6063 41.7366 42.6063 41.7366L43.3547 41.9946L43.7852 39.2994C43.7852 39.2994 45.1991 39.1866 45.4869 39.5238C45.8491 39.9498 45.4653 41.7582 45.4653 41.7582L46.5591 41.8338L46.6934 38.5194C46.6934 38.5194 48.0713 38.7318 48.2992 39.0918C48.617 39.5946 48.0581 41.4618 48.0581 41.4618L49.0043 41.5938C49.0043 41.5938 50.0357 35.703 50.3775 33.7398C52.6224 20.8638 45.1571 13.0386 45.1571 13.0386C45.0816 12.8094 45.367 12.0954 45.367 12.0954H45.3706ZM47.931 36.417C46.366 36.1398 43.3307 32.205 41.7477 30.6222C41.5702 30.4446 42.2502 29.7054 42.4276 29.883C43.8631 31.3182 47.251 34.2846 48.8316 35.8662C48.9827 36.0162 48.1397 36.453 47.9298 36.417H47.931ZM48.3004 33.591C46.7353 33.3138 44.2565 29.9418 42.6735 28.359C42.496 28.1814 43.2048 27.2838 43.3822 27.4614C44.8177 28.8966 47.2678 31.0038 48.8496 32.5854C49.0007 32.7354 48.509 33.627 48.2992 33.5898L48.3004 33.591ZM48.286 30.945C46.7485 29.8554 45.2938 28.137 43.7108 26.5542C43.5334 26.3766 44.2421 25.479 44.4196 25.6566C45.8551 27.0918 46.8373 28.1214 48.7141 30.1914C48.8568 30.3486 48.4587 31.0686 48.286 30.945ZM46.2592 15.9954C46.3516 16.3818 43.6257 18.5394 43.6797 19.2018C43.766 20.271 47.1323 22.695 46.9908 22.8054C46.8493 22.9158 45.692 23.2326 45.4042 23.1186C45.1176 23.0046 43.1196 20.0286 42.857 20.289C42.5943 20.5494 42.231 20.9934 42.2586 21.2658C42.2861 21.5394 42.6171 23.2518 42.4756 23.3814C42.3329 23.5122 41.2068 23.7102 41.0029 23.5698C40.931 23.5206 40.9442 22.6266 40.8075 21.4974C40.7199 20.7774 40.3985 19.971 40.329 19.2138C40.197 17.775 40.2126 16.5414 40.3218 16.6038C40.3218 16.6038 41.6745 15.5694 41.7645 16.4562C41.7645 16.4562 41.8904 19.0266 42.0571 19.3146C42.2238 19.6026 44.3896 16.3338 44.5059 16.1742C44.8333 15.7266 46.1645 15.6078 46.2568 15.9942L46.2592 15.9954Z" fill="#0767B3"/>
<path d="M47.2213 6.276L48.9279 2.97L48.4878 2.6604L46.7788 5.6412L45.5856 4.8276L46.9287 1.9188L45.9262 1.6692L44.7761 4.638L43.6116 4.4712L44.0565 1.368L43.0804 1.3596L42.7026 4.326L41.2959 4.2504L40.9181 0L39.9707 0.2652L40.6147 5.1696L47.2213 6.276Z" fill="#0767B3"/>
<path d="M48.9676 8.18987L49.1235 7.65347L46.8485 7.01267L44.7462 6.38867L44.3984 8.56547L45.7836 8.63267L48.4687 9.56147L48.6642 8.97107L45.5557 7.99667L45.5989 7.25387L48.9676 8.18987Z" fill="#0767B3"/>
<path d="M46.9356 46.1774C46.9356 46.1774 44.9364 46.331 44.5395 46.6538C44.3068 46.8422 44.4363 47.7326 44.4363 47.7326L47.9441 47.0294L48.3771 43.0526L47.3613 42.8906L46.9344 46.1786L46.9356 46.1774Z" fill="#0767B3"/>
<path d="M40.5391 46.445C40.5391 46.445 38.5399 46.5986 38.143 46.9214C37.9103 47.1098 38.0399 48.0002 38.0399 48.0002L41.5476 47.297L41.9806 43.3202L40.9648 43.1582L40.5379 46.4462L40.5391 46.445Z" fill="#0767B3"/>
<path d="M50.494 15.5111C52.6814 15.8159 56.1676 15.9587 56.754 15.2531C57.1558 14.7695 56.8572 13.8635 55.9398 13.8647C55.9398 13.8647 51.9738 13.5719 49.88 14.1695C49.525 14.2703 49.6653 15.3959 50.4952 15.5111H50.494Z" fill="#0767B3"/>
<path d="M56.79 16.2247C56.1364 16.0687 55.7754 16.4539 55.7754 16.4539L55.7946 27.4519C55.7946 27.4519 56.7084 25.4011 56.8991 23.7439C57.0718 22.2907 57.5155 20.6299 56.79 16.2259V16.2247Z" fill="#0767B3"/>
<path d="M55.1892 28.016C55.7445 25.4755 55.302 16.4971 55.302 16.4971C55.302 16.4971 54.4505 16.2799 53.5391 16.5319C54.0236 19.7971 54.0379 28.2967 54.0379 28.2967C54.0379 28.2967 55.1245 28.3099 55.188 28.0171L55.1892 28.016Z" fill="#0767B3"/>
<path d="M53.4742 28.4725C54.0294 25.9321 53.2991 16.6237 53.2991 16.6237C53.2991 16.6237 52.9153 16.4185 52.0039 16.6705C52.4884 19.9357 52.4548 28.4281 52.4548 28.4281C52.4548 28.4281 53.4106 28.7653 53.4742 28.4725Z" fill="#0767B3"/>
<path d="M50.1738 16.5497C50.4521 23.5925 51.8564 28.1105 51.8564 28.1105C52.4416 25.7813 51.469 16.5029 51.469 16.5029C51.469 16.5029 51.1572 16.2569 50.1738 16.5497Z" fill="#0767B3"/>
<path d="M51.4503 29.755C52.0859 30.5986 54.8489 30.4822 55.674 29.8222C55.9199 29.6254 55.9307 28.5898 55.9307 28.5898L51.6314 29.0878C51.6314 29.0878 51.3471 29.617 51.4503 29.755Z" fill="#0767B3"/>
<path d="M20.1586 38.3285C20.2006 39.1949 23.3462 40.9481 27.5831 40.7921C31.8201 40.6361 34.8002 38.8757 34.757 38.0093C34.715 37.1429 31.9808 36.2813 27.745 36.4361C23.5081 36.5921 20.1166 37.4609 20.1586 38.3273V38.3285ZM27.6143 37.2641C30.7156 37.1501 33.5961 37.3781 33.6333 38.1557C33.6717 38.9333 30.9062 39.9077 27.805 40.0217C24.7037 40.1357 21.9047 39.1001 21.8663 38.3225C21.8279 37.5449 24.5119 37.3769 27.6131 37.2629L27.6143 37.2641Z" fill="#0767B3"/>
<path d="M35.1243 38.8799C31.993 41.4911 29.4051 41.3555 27.4851 41.3555C24.1608 41.3555 21.2346 40.4975 19.8459 39.2951C18.8709 38.4503 21.0008 44.8091 21.8666 45.7391C24.1608 48.2051 31.0528 47.9807 33.6336 45.7391C34.6074 44.8931 36.1173 38.0519 35.1231 38.8799H35.1243ZM28.7791 46.2923C27.057 47.2919 26.2535 46.2839 25.7618 45.8207C25.2701 45.3575 25.0638 44.0627 25.7618 43.0979C26.4597 42.1343 27.5223 42.2531 27.5223 42.2531C28.7299 42.2135 29.3631 43.2155 29.3631 43.2155C29.3631 43.2155 30.5012 45.2927 28.7779 46.2923H28.7791Z" fill="#0767B3"/>
<path d="M27.5212 43.1612C26.7609 43.136 26.3627 43.766 26.3627 43.766C26.3627 43.766 25.6468 45.074 26.7309 45.7028C27.815 46.3316 28.3199 45.698 28.6293 45.4064C28.9387 45.1148 29.0682 44.3 28.6293 43.6928C28.1904 43.0856 27.5212 43.1612 27.5212 43.1612Z" fill="#0767B3"/>
<path d="M10.7028 8.57068L10.7423 9.25708L7.87255 10.1559L8.05364 10.7007L10.5325 9.84388L11.8109 9.78148L11.4895 7.77148L9.5491 8.34748L7.44922 8.94028L7.59313 9.43468L10.7028 8.57068Z" fill="#0767B3"/>
<path d="M9.46788 46.318L9.07453 43.2832L8.13672 43.4332L8.53607 47.1052L11.774 47.7544C11.774 47.7544 11.8928 46.9324 11.6781 46.7584C11.3111 46.4608 9.46668 46.3192 9.46668 46.3192L9.46788 46.318Z" fill="#0767B3"/>
<path d="M15.3741 46.5641L14.9808 43.5293L14.043 43.6793L14.4423 47.3513L17.6803 48.0005C17.6803 48.0005 17.799 47.1785 17.5843 47.0045C17.2174 46.7069 15.3729 46.5653 15.3729 46.5653L15.3741 46.5641Z" fill="#0767B3"/>
<path d="M6.18273 16.1958C6.94785 16.089 7.07736 15.051 6.74997 14.9574C4.81679 14.4054 1.15549 14.6754 1.15549 14.6754C0.30762 14.6742 0.0329931 15.5106 0.40356 15.957C0.945619 16.6086 4.1632 16.4766 6.18273 16.1958Z" fill="#0767B3"/>
<path d="M1.3076 17.0659C1.3076 17.0659 0.974209 16.7107 0.370988 16.8547C-0.298192 20.9203 0.110751 22.4539 0.270251 23.7955C0.44654 25.3255 1.28961 27.2191 1.28961 27.2191L1.3076 17.0659Z" fill="#0767B3"/>
<path d="M1.7437 17.1045C1.7437 17.1045 1.33595 25.3941 1.84803 27.7389C1.9068 28.0089 2.90937 27.9981 2.90937 27.9981C2.90937 27.9981 2.92256 20.1513 3.36988 17.1357C2.52801 16.9029 1.7425 17.1045 1.7425 17.1045H1.7437Z" fill="#0767B3"/>
<path d="M3.59374 17.2212C3.59374 17.2212 2.91976 25.8144 3.43304 28.1604C3.4918 28.4304 4.37445 28.1196 4.37445 28.1196C4.37445 28.1196 4.34327 20.28 4.79059 17.2644C3.94872 17.0316 3.59494 17.2212 3.59494 17.2212H3.59374Z" fill="#0767B3"/>
<path d="M6.47969 17.1519C5.57066 16.8819 5.28404 17.1087 5.28404 17.1087C5.28404 17.1087 4.38701 25.6743 4.92667 27.8247C4.92667 27.8247 6.22305 23.6535 6.47969 17.1519Z" fill="#0767B3"/>
<path d="M1.16526 28.2695C1.16526 28.2695 1.17486 29.2259 1.40151 29.4071C2.16303 30.0167 4.71503 30.1235 5.30026 29.3447C5.3962 29.2175 5.13357 28.7291 5.13357 28.7291L1.16406 28.2695H1.16526Z" fill="#0767B3"/>
<path d="M14.5003 4.69863C14.4319 4.04943 14.192 3.44462 13.8095 2.87702C13.4053 3.48542 13.1535 4.11302 13.072 4.76102C12.6366 3.70382 12.0802 3.03662 11.471 2.64062C11.02 3.23343 10.9073 4.15383 10.8749 5.15463C10.4396 4.61943 9.94791 4.24022 9.43104 3.92823C9.32431 4.54743 9.39146 5.14742 9.57255 5.73423C9.19119 5.39943 8.57838 5.21343 7.88281 5.08143L9.21877 7.66743L15.3169 6.64623L15.7415 3.41463C15.1287 3.62463 14.7665 4.10822 14.5003 4.69743V4.69863ZM10.5451 6.91023C10.3401 6.91023 10.1746 6.74463 10.1746 6.53943C10.1746 6.33423 10.3401 6.16863 10.5451 6.16863C10.7502 6.16863 10.9157 6.33423 10.9157 6.53943C10.9157 6.74463 10.7502 6.91023 10.5451 6.91023ZM12.2589 6.72543C11.9003 6.72543 11.6101 6.43503 11.6101 6.07623C11.6101 5.71743 11.9003 5.42703 12.2589 5.42703C12.6174 5.42703 12.9077 5.71743 12.9077 6.07623C12.9077 6.43503 12.6174 6.72543 12.2589 6.72543ZM13.897 6.16863C13.692 6.16863 13.5265 6.00303 13.5265 5.79783C13.5265 5.59263 13.692 5.42703 13.897 5.42703C14.1021 5.42703 14.2676 5.59263 14.2676 5.79783C14.2676 6.00303 14.1021 6.16863 13.897 6.16863Z" fill="#0767B3"/>
<path d="M24.9251 5.41259C24.9251 5.41259 23.2078 5.02019 22.6933 5.57219C22.1117 6.19739 22.613 8.19179 22.6933 8.98619C22.854 10.557 24.1912 11.6598 24.1912 11.6598L24.2739 14.9994L24.3219 16.9458L24.3915 19.7706L24.3951 19.905L24.5917 27.843C24.5917 27.843 24.0796 28.1574 23.9657 28.4262C23.4057 29.7462 23.6527 33.219 24.7812 34.1034C25.1086 34.359 26.1148 34.3098 26.1148 34.3098L24.9239 5.41379L24.9251 5.41259Z" fill="#0767B3"/>
<path d="M24.4173 17.5392L24.3645 15.7476C23.5298 16.5084 20.6421 19.0764 20.1636 18.6348C18.2604 17.256 14.436 12.816 14.436 12.816C14.436 12.816 13.8543 11.7624 13.991 11.79C15.026 12 14.5811 11.004 14.954 10.7052C15.0716 10.6116 14.9648 10.5 15.0548 10.3704C15.2179 10.134 15.4313 10.2084 15.4361 9.95876C15.4361 9.95876 14.9121 9.56516 15.2395 8.91836C15.5669 8.27156 15.2047 7.10156 15.2047 7.10156C15.2047 7.10156 13.4886 7.44116 12.2929 7.64276C11.7844 7.72916 12.3373 10.3176 12.3373 10.3176C12.3373 10.3176 10.6811 10.1736 10.5108 10.4304C10.1786 10.9308 10.9138 13.0404 10.9138 13.0404C10.9138 13.0404 11.1764 13.6992 11.1081 13.9116C11.1081 13.9116 5.89973 21.2232 6.28829 33.0228C6.34945 34.8624 7.55589 42 7.55589 42L8.42894 41.8788C8.42894 41.8788 7.91326 40.1556 8.20708 39.6912C8.41695 39.3588 9.69055 39.1632 9.69055 39.1632L9.81527 42.2232L10.825 42.1536C10.825 42.1536 10.4701 40.4844 10.8046 40.0908C11.0697 39.7788 12.3757 39.8832 12.3757 39.8832L12.7726 42.3708L13.4634 42.1332C13.4634 42.1332 13.2283 40.4976 13.4982 40.098C13.7428 39.7356 15.0752 39.5616 15.0752 39.5616L15.3534 42.4416L16.6066 42.2412C16.6066 42.2412 13.1923 29.5596 16.573 24.3492C18.475 21.4188 17.6296 18.8268 17.6296 18.8268C17.6296 18.8268 19.2401 20.292 20.3351 20.3928C21.5547 20.1132 22.5788 19.3236 24.4173 17.5392ZM7.82572 29.748C9.55863 27.8376 10.4653 26.8872 11.7904 25.5624C11.9547 25.398 12.6095 26.2272 12.4452 26.3904C10.9833 27.852 9.64138 29.4384 8.22147 30.444C8.06077 30.558 7.6938 29.8932 7.82572 29.748ZM7.6998 31.9584C9.15928 30.498 11.4223 28.5528 12.7474 27.228C12.9117 27.0636 13.5665 27.8928 13.4022 28.056C11.9403 29.5176 9.65217 32.6304 8.20708 32.886C8.014 32.9208 7.56069 32.0976 7.6998 31.9584ZM14.2573 30.1464C12.7954 31.608 9.99396 35.2404 8.54886 35.496C8.35579 35.5308 7.57748 35.1276 7.71659 34.9884C9.17607 33.528 12.3049 30.7896 13.6289 29.4648C13.7932 29.3004 14.4204 29.9832 14.2561 30.1464H14.2573ZM15.5788 22.0104C15.1339 22.7592 13.5317 23.7156 12.6995 23.9724C12.2689 24.1044 11.3263 24.1152 10.8994 23.9724C10.2362 23.7504 9.14009 22.6452 8.93742 21.9744C8.67359 21.1008 9.46389 19.2408 9.94479 18.4656C10.4689 17.6232 12.396 16.2324 13.3638 16.4496C13.6768 16.5204 14.1697 17.202 14.0834 17.5116C13.8495 18.3516 11.5818 18.4068 10.9162 18.9696C10.4844 19.3344 10.0611 20.5104 10.0887 21.0756C10.1091 21.5016 10.313 22.4076 10.6284 22.6956C10.9354 22.9752 11.848 23.1876 12.2485 23.0736C12.8278 22.908 14.1757 22.254 14.1925 21.6516C14.1961 21.5232 13.9227 21.348 13.7968 21.3276C13.2295 21.2376 12.1778 22.3944 11.6549 22.1556C11.3815 22.0308 11.3215 21.2256 11.475 20.9676C11.8588 20.322 13.5497 19.98 14.3004 19.9416C14.7262 19.92 15.6556 20.2812 15.8487 20.6616C16.0046 20.9688 15.7551 21.7152 15.5788 22.0116V22.0104Z" fill="#0767B3"/>
</g>
<defs>
<clipPath id="clip0_476_1134">
<rect width="161" height="48" fill="white"/>
</clipPath>
</defs>
</svg>
