<svg width="267" height="48" viewBox="0 0 267 48" fill="none" xmlns="http://www.w3.org/2000/svg">
<g clip-path="url(#clip0_142_3504)">
<path d="M45.3615 12.0954C45.3615 12.0954 46.1576 9.81059 45.7979 9.26819C45.6133 8.98979 43.8196 9.14579 43.8196 9.14579C43.8196 9.14579 44.4179 6.34139 43.8675 6.24899C42.5726 6.02939 40.5523 5.66219 40.5523 5.66219L40.3196 9.74099C40.3196 9.74099 40.358 11.1978 41.6422 11.097C41.7932 11.085 41.5462 11.8518 41.5462 11.8518C41.5462 11.8518 37.4049 16.6602 35.3438 18.1542C34.8186 18.639 31.628 15.789 30.7636 14.9994L30.8463 11.6598C30.8463 11.6598 32.1832 10.557 32.3438 8.98619C32.4254 8.19179 32.9266 6.19619 32.3438 5.57219C31.8295 5.02019 30.1125 5.41259 30.1125 5.41259L28.9219 34.3086C28.9219 34.3086 29.929 34.3578 30.2552 34.1022C31.3846 33.219 31.6304 29.745 31.0705 28.425C30.9566 28.1562 30.4446 27.8418 30.4446 27.8418L30.7144 16.9458C32.7203 18.8946 33.8306 19.755 35.1567 20.0586C36.3437 19.9494 38.0871 18.363 38.0871 18.363L38.5859 28.9494L39.1938 41.8542L40.5511 42.0714L40.852 38.9514C40.852 38.9514 42.2956 39.1398 42.5606 39.5322C42.852 39.9654 42.5978 41.7366 42.5978 41.7366L43.3459 41.9946L43.7764 39.2994C43.7764 39.2994 45.19 39.1866 45.4778 39.5238C45.8399 39.9498 45.4562 41.7582 45.4562 41.7582L46.5497 41.8338L46.684 38.5194C46.684 38.5194 48.0616 38.7318 48.2895 39.0918C48.6072 39.5946 48.0485 41.4618 48.0485 41.4618L48.9945 41.5938C48.9945 41.5938 50.0256 35.703 50.3673 33.7398C52.6119 20.8638 45.1481 13.0386 45.1481 13.0386C45.0725 12.8094 45.3579 12.0954 45.3579 12.0954H45.3615ZM47.9214 36.417C46.3567 36.1398 43.322 32.205 41.7393 30.6222C41.5618 30.4446 42.2417 29.7054 42.4191 29.883C43.8543 31.3182 47.2415 34.2846 48.8218 35.8662C48.9729 36.0162 48.13 36.453 47.9202 36.417H47.9214ZM48.2907 33.591C46.726 33.3138 44.2476 29.9418 42.6649 28.359C42.4875 28.1814 43.1961 27.2838 43.3735 27.4614C44.8087 28.8966 47.2583 31.0038 48.8398 32.5854C48.9909 32.7354 48.4993 33.627 48.2895 33.5898L48.2907 33.591ZM48.2763 30.945C46.7391 29.8554 45.2847 28.137 43.7021 26.5542C43.5246 26.3766 44.2332 25.479 44.4107 25.6566C45.8459 27.0918 46.8279 28.1214 48.7043 30.1914C48.847 30.3486 48.4489 31.0686 48.2763 30.945ZM46.2499 15.9954C46.3423 16.3818 43.6169 18.5394 43.6709 19.2018C43.7572 20.271 47.1228 22.695 46.9813 22.8054C46.8399 22.9158 45.6828 23.2326 45.3951 23.1186C45.1085 23.0046 43.1109 20.0286 42.8484 20.289C42.5858 20.5494 42.2225 20.9934 42.2501 21.2658C42.2776 21.5394 42.6086 23.2518 42.4671 23.3814C42.3244 23.5122 41.1985 23.7102 40.9947 23.5698C40.9227 23.5206 40.9359 22.6266 40.7993 21.4974C40.7117 20.7774 40.3904 19.971 40.3208 19.2138C40.189 17.775 40.2045 16.5414 40.3137 16.6038C40.3137 16.6038 41.6661 15.5694 41.7561 16.4562C41.7561 16.4562 41.882 19.0266 42.0486 19.3146C42.2153 19.6026 44.3807 16.3338 44.497 16.1742C44.8243 15.7266 46.1552 15.6078 46.2475 15.9942L46.2499 15.9954Z" fill="white"/>
<path d="M47.2121 6.276L48.9183 2.97L48.4783 2.6604L46.7697 5.6412L45.5766 4.8276L46.9195 1.9188L45.9172 1.6692L44.7673 4.638L43.6031 4.4712L44.0479 1.368L43.0719 1.3596L42.6942 4.326L41.2878 4.2504L40.9101 0L39.9629 0.2652L40.6068 5.1696L47.2121 6.276Z" fill="white"/>
<path d="M48.9569 8.18987L49.1128 7.65347L46.8382 7.01267L44.7364 6.38867L44.3887 8.56547L45.7735 8.63267L48.4581 9.56147L48.6535 8.97107L45.5457 7.99667L45.5889 7.25387L48.9569 8.18987Z" fill="white"/>
<path d="M46.9273 46.1774C46.9273 46.1774 44.9285 46.331 44.5316 46.6538C44.299 46.8422 44.4285 47.7326 44.4285 47.7326L47.9356 47.0294L48.3685 43.0526L47.3529 42.8906L46.9261 46.1786L46.9273 46.1774Z" fill="white"/>
<path d="M40.5317 46.445C40.5317 46.445 38.533 46.5986 38.1361 46.9214C37.9035 47.1098 38.033 48.0002 38.033 48.0002L41.5401 47.297L41.973 43.3202L40.9574 43.1582L40.5305 46.4462L40.5317 46.445Z" fill="white"/>
<path d="M50.4841 15.5111C52.671 15.8159 56.1566 15.9587 56.7429 15.2531C57.1445 14.7695 56.846 13.8635 55.9288 13.8647C55.9288 13.8647 51.9636 13.5719 49.8702 14.1695C49.5153 14.2703 49.6555 15.3959 50.4853 15.5111H50.4841Z" fill="white"/>
<path d="M56.778 16.2247C56.1246 16.0687 55.7637 16.4539 55.7637 16.4539L55.7829 27.4519C55.7829 27.4519 56.6965 25.4011 56.8871 23.7439C57.0598 22.2907 57.5034 20.6299 56.778 16.2259V16.2247Z" fill="white"/>
<path d="M55.1791 28.016C55.7343 25.4755 55.2918 16.4971 55.2918 16.4971C55.2918 16.4971 54.4405 16.2799 53.5293 16.5319C54.0137 19.7971 54.0281 28.2967 54.0281 28.2967C54.0281 28.2967 55.1144 28.3099 55.1779 28.0171L55.1791 28.016Z" fill="white"/>
<path d="M53.4631 28.4725C54.0183 25.9321 53.2881 16.6237 53.2881 16.6237C53.2881 16.6237 52.9044 16.4185 51.9932 16.6705C52.4776 19.9357 52.444 28.4281 52.444 28.4281C52.444 28.4281 53.3996 28.7653 53.4631 28.4725Z" fill="white"/>
<path d="M50.1641 16.5497C50.4422 23.5925 51.8463 28.1105 51.8463 28.1105C52.4314 25.7813 51.459 16.5029 51.459 16.5029C51.459 16.5029 51.1472 16.2569 50.1641 16.5497Z" fill="white"/>
<path d="M51.4405 29.755C52.076 30.5986 54.8385 30.4822 55.6634 29.8222C55.9092 29.6254 55.92 28.5898 55.92 28.5898L51.6216 29.0878C51.6216 29.0878 51.3374 29.617 51.4405 29.755Z" fill="white"/>
<path d="M20.1547 38.3285C20.1966 39.1949 23.3416 40.9481 27.5777 40.7921C31.8138 40.6361 34.7934 38.8757 34.7502 38.0093C34.7082 37.1429 31.9745 36.2813 27.7396 36.4361C23.5035 36.5921 20.1127 37.4609 20.1547 38.3273V38.3285ZM27.6089 37.2641C30.7096 37.1501 33.5896 37.3781 33.6267 38.1557C33.6651 38.9333 30.9002 39.9077 27.7996 40.0217C24.6989 40.1357 21.9004 39.1001 21.8621 38.3225C21.8237 37.5449 24.5071 37.3769 27.6077 37.2629L27.6089 37.2641Z" fill="white"/>
<path d="M35.1173 38.8799C31.9867 41.4911 29.3992 41.3555 27.4796 41.3555C24.156 41.3555 21.2304 40.4975 19.8419 39.2951C18.8671 38.4503 20.9966 44.8091 21.8623 45.7391C24.156 48.2051 31.0467 47.9807 33.6269 45.7391C34.6005 44.8931 36.1101 38.0519 35.1161 38.8799H35.1173ZM28.7733 46.2923C27.0516 47.2919 26.2482 46.2839 25.7566 45.8207C25.265 45.3575 25.0588 44.0627 25.7566 43.0979C26.4545 42.1343 27.5168 42.2531 27.5168 42.2531C28.7242 42.2135 29.3573 43.2155 29.3573 43.2155C29.3573 43.2155 30.4951 45.2927 28.7721 46.2923H28.7733Z" fill="white"/>
<path d="M27.5161 43.1612C26.7559 43.136 26.3578 43.766 26.3578 43.766C26.3578 43.766 25.642 45.074 26.7259 45.7028C27.8098 46.3316 28.3146 45.698 28.6239 45.4064C28.9333 45.1148 29.0628 44.3 28.6239 43.6928C28.1851 43.0856 27.5161 43.1612 27.5161 43.1612Z" fill="white"/>
<path d="M10.7012 8.57068L10.7407 9.25708L7.87149 10.1559L8.05254 10.7007L10.5309 9.84388L11.809 9.78148L11.4877 7.77148L9.54771 8.34748L7.44824 8.94028L7.59212 9.43468L10.7012 8.57068Z" fill="white"/>
<path d="M9.46567 46.318L9.07239 43.2832L8.13477 43.4332L8.53404 47.1052L11.7714 47.7544C11.7714 47.7544 11.8901 46.9324 11.6754 46.7584C11.3085 46.4608 9.46447 46.3192 9.46447 46.3192L9.46567 46.318Z" fill="white"/>
<path d="M15.3709 46.5641L14.9777 43.5293L14.04 43.6793L14.4393 47.3513L17.6766 48.0005C17.6766 48.0005 17.7953 47.1785 17.5807 47.0045C17.2138 46.7069 15.3697 46.5653 15.3697 46.5653L15.3709 46.5641Z" fill="white"/>
<path d="M6.18155 16.1958C6.94652 16.089 7.07601 15.051 6.74868 14.9574C4.81588 14.4054 1.15531 14.6754 1.15531 14.6754C0.307608 14.6742 0.0330346 15.5106 0.403528 15.957C0.94548 16.6086 4.16242 16.4766 6.18155 16.1958Z" fill="white"/>
<path d="M1.30734 17.0659C1.30734 17.0659 0.974015 16.7107 0.370914 16.8547C-0.298133 20.9203 0.110729 22.4539 0.270197 23.7955C0.446452 25.3255 1.28935 27.2191 1.28935 27.2191L1.30734 17.0659Z" fill="white"/>
<path d="M1.74367 17.1045C1.74367 17.1045 1.336 25.3941 1.84798 27.7389C1.90673 28.0089 2.9091 27.9981 2.9091 27.9981C2.9091 27.9981 2.92229 20.1513 3.36952 17.1357C2.52782 16.9029 1.74247 17.1045 1.74247 17.1045H1.74367Z" fill="white"/>
<path d="M3.59367 17.2212C3.59367 17.2212 2.91983 25.8144 3.433 28.1604C3.49175 28.4304 4.37422 28.1196 4.37422 28.1196C4.37422 28.1196 4.34305 20.28 4.79028 17.2644C3.94857 17.0316 3.59487 17.2212 3.59487 17.2212H3.59367Z" fill="white"/>
<path d="M6.4774 17.1519C5.56855 16.8819 5.28198 17.1087 5.28198 17.1087C5.28198 17.1087 4.38513 25.6743 4.92468 27.8247C4.92468 27.8247 6.22081 23.6535 6.4774 17.1519Z" fill="white"/>
<path d="M1.16428 28.2695C1.16428 28.2695 1.17388 29.2259 1.40049 29.4071C2.16186 30.0167 4.71335 30.1235 5.29847 29.3447C5.39439 29.2175 5.1318 28.7291 5.1318 28.7291L1.16309 28.2695H1.16428Z" fill="white"/>
<path d="M14.497 4.69863C14.4286 4.04943 14.1888 3.44462 13.8064 2.87702C13.4023 3.48542 13.1505 4.11302 13.069 4.76102C12.6337 3.70382 12.0774 3.03662 11.4683 2.64062C11.0175 3.23343 10.9048 4.15383 10.8724 5.15462C10.4371 4.61943 9.94555 4.24022 9.42878 3.92822C9.32207 4.54742 9.38921 5.14742 9.57026 5.73422C9.18898 5.39942 8.57628 5.21342 7.88086 5.08142L9.21655 7.66742L15.3135 6.64622L15.738 3.41463C15.1253 3.62463 14.7632 4.10822 14.497 4.69742V4.69863ZM10.5427 6.91022C10.3376 6.91022 10.1722 6.74463 10.1722 6.53943C10.1722 6.33423 10.3376 6.16863 10.5427 6.16863C10.7477 6.16863 10.9132 6.33423 10.9132 6.53943C10.9132 6.74463 10.7477 6.91022 10.5427 6.91022ZM12.256 6.72543C11.8975 6.72543 11.6074 6.43502 11.6074 6.07623C11.6074 5.71743 11.8975 5.42703 12.256 5.42703C12.6145 5.42703 12.9047 5.71743 12.9047 6.07623C12.9047 6.43502 12.6145 6.72543 12.256 6.72543ZM13.8939 6.16863C13.6889 6.16863 13.5234 6.00303 13.5234 5.79783C13.5234 5.59263 13.6889 5.42703 13.8939 5.42703C14.0989 5.42703 14.2644 5.59263 14.2644 5.79783C14.2644 6.00303 14.0989 6.16863 13.8939 6.16863Z" fill="white"/>
<path d="M24.9207 5.41259C24.9207 5.41259 23.2037 5.02019 22.6894 5.57219C22.1078 6.19739 22.609 8.19179 22.6894 8.98619C22.85 10.557 24.1869 11.6598 24.1869 11.6598L24.2697 14.9994L24.3176 16.9458L24.3872 19.7706L24.3908 19.905L24.5874 27.843C24.5874 27.843 24.0754 28.1574 23.9615 28.4262C23.4016 29.7462 23.6486 33.219 24.7768 34.1034C25.1042 34.359 26.1101 34.3098 26.1101 34.3098L24.9195 5.41379L24.9207 5.41259Z" fill="white"/>
<path d="M24.4127 17.5392L24.36 15.7476C23.5254 16.5084 20.6382 19.0764 20.1598 18.6348C18.257 17.256 14.4334 12.816 14.4334 12.816C14.4334 12.816 13.8518 11.7624 13.9885 11.79C15.0233 12 14.5784 11.004 14.9513 10.7052C15.0688 10.6116 14.9621 10.5 15.0521 10.3704C15.2151 10.134 15.4285 10.2084 15.4333 9.95876C15.4333 9.95876 14.9094 9.56516 15.2367 8.91836C15.564 8.27156 15.2019 7.10156 15.2019 7.10156C15.2019 7.10156 13.4862 7.44116 12.2907 7.64276C11.7824 7.72916 12.3351 10.3176 12.3351 10.3176C12.3351 10.3176 10.6793 10.1736 10.509 10.4304C10.1769 10.9308 10.9119 13.0404 10.9119 13.0404C10.9119 13.0404 11.1745 13.6992 11.1061 13.9116C11.1061 13.9116 5.89883 21.2232 6.2873 33.0228C6.34845 34.8624 7.55466 42 7.55466 42L8.42754 41.8788C8.42754 41.8788 7.91196 40.1556 8.20572 39.6912C8.41555 39.3588 9.68889 39.1632 9.68889 39.1632L9.81359 42.2232L10.8232 42.1536C10.8232 42.1536 10.4682 40.4844 10.8028 40.0908C11.0678 39.7788 12.3735 39.8832 12.3735 39.8832L12.7703 42.3708L13.461 42.1332C13.461 42.1332 13.226 40.4976 13.4957 40.098C13.7403 39.7356 15.0724 39.5616 15.0724 39.5616L15.3506 42.4416L16.6036 42.2412C16.6036 42.2412 13.19 29.5596 16.57 24.3492C18.4716 21.4188 17.6263 18.8268 17.6263 18.8268C17.6263 18.8268 19.2366 20.292 20.3313 20.3928C21.5507 20.1132 22.5746 19.3236 24.4127 17.5392ZM7.82443 29.748C9.557 27.8376 10.4635 26.8872 11.7884 25.5624C11.9526 25.398 12.6073 26.2272 12.443 26.3904C10.9814 27.852 9.63973 29.4384 8.22011 30.444C8.05944 30.558 7.69254 29.8932 7.82443 29.748ZM7.69854 31.9584C9.15773 30.498 11.4203 28.5528 12.7452 27.228C12.9094 27.0636 13.5641 27.8928 13.3998 28.056C11.9382 29.5176 9.65052 32.6304 8.20572 32.886C8.01268 32.9208 7.55945 32.0976 7.69854 31.9584ZM14.2547 30.1464C12.7931 31.608 9.99224 35.2404 8.54744 35.496C8.3544 35.5308 7.57624 35.1276 7.71532 34.9884C9.17452 33.528 12.3027 30.7896 13.6264 29.4648C13.7907 29.3004 14.4178 29.9832 14.2535 30.1464H14.2547ZM15.576 22.0104C15.1312 22.7592 13.5293 23.7156 12.6972 23.9724C12.2668 24.1044 11.3243 24.1152 10.8975 23.9724C10.2344 23.7504 9.13855 22.6452 8.93591 21.9744C8.67213 21.1008 9.46228 19.2408 9.94308 18.4656C10.467 17.6232 12.3939 16.2324 13.3615 16.4496C13.6744 16.5204 14.1672 17.202 14.0809 17.5116C13.8471 18.3516 11.5797 18.4068 10.9143 18.9696C10.4826 19.3344 10.0594 20.5104 10.087 21.0756C10.1073 21.5016 10.3112 22.4076 10.6265 22.6956C10.9335 22.9752 11.8459 23.1876 12.2464 23.0736C12.8255 22.908 14.1732 22.254 14.19 21.6516C14.1936 21.5232 13.9202 21.348 13.7943 21.3276C13.2272 21.2376 12.1756 22.3944 11.6529 22.1556C11.3795 22.0308 11.3195 21.2256 11.473 20.9676C11.8567 20.322 13.5473 19.98 14.2979 19.9416C14.7235 19.92 15.6528 20.2812 15.8458 20.6616C16.0017 20.9688 15.7523 21.7152 15.576 22.0116V22.0104Z" fill="white"/>
<path d="M76.6613 21.0044C76.3639 20.456 75.9371 20.0372 75.3819 19.7468C74.8268 19.4576 74.1733 19.3124 73.4216 19.3124C72.1218 19.3124 71.0811 19.7396 70.2993 20.5928C69.5164 21.4472 69.1255 22.586 69.1255 24.0116C69.1255 25.5308 69.5368 26.7176 70.3581 27.5708C71.1794 28.424 72.3101 28.8512 73.7501 28.8512C74.7357 28.8512 75.569 28.6004 76.25 28.0988C76.9311 27.5984 77.4274 26.8772 77.7404 25.9376H72.6458V22.9772H81.3794V26.7128C81.082 27.716 80.5772 28.6484 79.865 29.5088C79.1528 30.3704 78.2488 31.0676 77.1529 31.6004C76.057 32.1332 74.8208 32.3996 73.4431 32.3996C71.8149 32.3996 70.3641 32.0432 69.0883 31.3304C67.8126 30.6176 66.8186 29.6276 66.1064 28.358C65.3942 27.0896 65.0381 25.64 65.0381 24.0116C65.0381 22.3832 65.3942 20.93 66.1064 19.6532C66.8186 18.3764 67.809 17.3828 69.0763 16.6688C70.3437 15.956 71.7921 15.5996 73.4192 15.5996C75.3915 15.5996 77.0546 16.0772 78.4082 17.0336C79.7619 17.9888 80.6576 19.3124 81.0964 21.0044H76.6589H76.6613Z" fill="white"/>
<path d="M87.86 15.7871V32.2811H83.8457V15.7871H87.86Z" fill="white"/>
<path d="M101.735 15.7871V19.0067H95.0201V22.4843H100.044V25.6091H95.0201V32.2823H91.0059V15.7883H101.735V15.7871Z" fill="white"/>
<path d="M115.938 15.7871V19.0067H111.572V32.2823H107.557V19.0067H103.19V15.7871H115.938Z" fill="white"/>
<path d="M160.728 32.2368L155.218 24.9936V32.2368H151.226V15.834H155.218V23.0304L160.681 15.834H165.374L159.024 23.8716L165.608 32.2368H160.728Z" fill="white"/>
<path d="M171.724 15.834V32.2368H167.731V15.834H171.724Z" fill="white"/>
<path d="M189.514 32.2368H185.522L178.844 22.1196V32.2368H174.852V15.834H178.844L185.522 25.998V15.834H189.514V32.2368Z" fill="white"/>
<path d="M203.312 16.8612C204.603 17.5464 205.603 18.5088 206.311 19.7472C207.02 20.9856 207.374 22.4148 207.374 24.0348C207.374 25.6548 207.02 27.0648 206.311 28.3116C205.603 29.5584 204.599 30.5232 203.3 31.2084C202 31.8936 200.494 32.2368 198.782 32.2368H192.642V15.834H198.782C200.509 15.834 202.019 16.1772 203.312 16.8624V16.8612ZM202.051 27.54C202.892 26.7144 203.313 25.5468 203.313 24.0348C203.313 22.5228 202.892 21.348 202.051 20.5068C201.211 19.6656 200.036 19.2444 198.526 19.2444H196.635V28.7772H198.526C200.036 28.7772 201.211 28.3644 202.051 27.5388V27.54Z" fill="white"/>
<path d="M224.51 32.2368H220.518L213.84 22.1196V32.2368H209.848V15.834H213.84L220.518 25.998V15.834H224.51V32.2368Z" fill="white"/>
<path d="M231.631 19.0344V22.3524H236.978V25.4364H231.631V29.0352H237.678V32.2368H227.639V15.834H237.678V19.0356H231.631V19.0344Z" fill="white"/>
<path d="M243.211 31.8152C242.262 31.4264 241.503 30.8492 240.934 30.086C240.366 29.3228 240.066 28.4036 240.035 27.3284H244.284C244.347 27.9356 244.557 28.4 244.915 28.7192C245.272 29.0384 245.74 29.198 246.316 29.198C246.891 29.198 247.374 29.0624 247.716 28.7888C248.058 28.5164 248.229 28.1384 248.229 27.656C248.229 27.2516 248.093 26.9168 247.82 26.6516C247.548 26.3864 247.214 26.1692 246.817 25.9976C246.42 25.826 245.855 25.6316 245.124 25.4132C244.065 25.0856 243.201 24.7592 242.533 24.4316C241.864 24.104 241.287 23.6216 240.805 22.9832C240.323 22.3448 240.081 21.5108 240.081 20.4836C240.081 18.9572 240.633 17.762 241.739 16.8968C242.843 16.0328 244.283 15.5996 246.058 15.5996C247.832 15.5996 249.318 16.0316 250.423 16.8968C251.529 17.7608 252.12 18.9644 252.198 20.5064H247.878C247.847 19.9772 247.652 19.5596 247.294 19.256C246.935 18.9524 246.477 18.8 245.916 18.8C245.434 18.8 245.045 18.9284 244.75 19.1852C244.454 19.442 244.306 19.8128 244.306 20.2952C244.306 20.8256 244.555 21.2372 245.053 21.5336C245.551 21.83 246.329 22.1492 247.387 22.4912C248.446 22.85 249.306 23.192 249.968 23.5196C250.628 23.8472 251.202 24.3224 251.684 24.9452C252.166 25.568 252.407 26.3708 252.407 27.3524C252.407 28.334 252.169 29.1368 251.694 29.8988C251.22 30.662 250.531 31.2704 249.628 31.7216C248.726 32.1728 247.66 32.3996 246.429 32.3996C245.199 32.3996 244.157 32.2052 243.208 31.8152H243.211Z" fill="white"/>
<path d="M257.803 31.8152C256.854 31.4264 256.095 30.8492 255.526 30.086C254.958 29.3228 254.658 28.4036 254.627 27.3284H258.876C258.939 27.9356 259.148 28.4 259.507 28.7192C259.864 29.0384 260.332 29.198 260.907 29.198C261.483 29.198 261.966 29.0624 262.308 28.7888C262.65 28.5164 262.821 28.1384 262.821 27.656C262.821 27.2516 262.684 26.9168 262.412 26.6516C262.14 26.3864 261.805 26.1692 261.409 25.9976C261.012 25.826 260.447 25.6316 259.716 25.4132C258.657 25.0856 257.794 24.7592 257.124 24.4316C256.455 24.104 255.88 23.6216 255.397 22.9832C254.915 22.3448 254.673 21.5108 254.673 20.4836C254.673 18.9572 255.225 17.762 256.331 16.8968C257.435 16.0328 258.875 15.5996 260.65 15.5996C262.424 15.5996 263.91 16.0316 265.015 16.8968C266.119 17.7608 266.712 18.9644 266.79 20.5064H262.471C262.44 19.9772 262.245 19.5596 261.887 19.256C261.528 18.9524 261.07 18.8 260.509 18.8C260.027 18.8 259.638 18.9284 259.343 19.1852C259.047 19.442 258.899 19.8128 258.899 20.2952C258.899 20.8256 259.147 21.2372 259.646 21.5336C260.144 21.83 260.922 22.1492 261.98 22.4912C263.039 22.85 263.899 23.192 264.561 23.5196C265.221 23.8472 265.795 24.3224 266.277 24.9452C266.759 25.568 267 26.3708 267 27.3524C267 28.334 266.762 29.1368 266.287 29.8988C265.813 30.662 265.123 31.2704 264.221 31.7216C263.319 32.174 262.253 32.3996 261.022 32.3996C259.792 32.3996 258.75 32.2052 257.801 31.8152H257.803Z" fill="white"/>
<path d="M125.456 27.4592C124.488 26.9192 123.719 26.1644 123.15 25.1948C122.58 24.2252 122.296 23.1356 122.296 21.926C122.296 20.7164 122.58 19.6292 123.15 18.6656C123.719 17.7032 124.488 16.9508 125.456 16.4096C126.425 15.8696 127.49 15.5996 128.653 15.5996C129.816 15.5996 130.881 15.8696 131.848 16.4096C132.817 16.9508 133.58 17.702 134.137 18.6656C134.695 19.6292 134.974 20.7164 134.974 21.926C134.974 23.1356 134.692 24.2264 134.129 25.1948C133.565 26.1644 132.803 26.9192 131.84 27.4592C130.877 27.9992 129.815 28.2692 128.653 28.2692C127.491 28.2692 126.425 27.9992 125.456 27.4592ZM131.02 24.5336C131.612 23.876 131.91 23.006 131.91 21.926C131.91 20.846 131.613 19.9616 131.02 19.3088C130.426 18.6572 129.637 18.3308 128.652 18.3308C127.666 18.3308 126.858 18.6536 126.266 19.3004C125.674 19.946 125.376 20.822 125.376 21.926C125.376 23.03 125.672 23.8904 126.266 24.5432C126.858 25.1948 127.654 25.5212 128.652 25.5212C129.649 25.5212 130.428 25.1924 131.02 24.5348V24.5336Z" fill="white"/>
<path d="M144.869 15.7773V18.1917H139.833V20.7993H143.601V23.1429H139.833V28.1481H136.822V15.7773H144.869Z" fill="white"/>
<path d="M144.868 30.0547H122.296V32.3983H144.868V30.0547Z" fill="white"/>
</g>
<defs>
<clipPath id="clip0_142_3504">
<rect width="267" height="48" fill="white"/>
</clipPath>
</defs>
</svg>
